<?xml version="1.0" standalone="no"?>
<!DOCTYPE svg PUBLIC "-//W3C//DTD SVG 20010904//EN"
 "http://www.w3.org/TR/2001/REC-SVG-20010904/DTD/svg10.dtd">
<svg version="1.0" xmlns="http://www.w3.org/2000/svg"
 viewBox="0 0 100 100"
 preserveAspectRatio="xMidYMid meet">

<g transform="translate(0.000000,80.000000) scale(0.100000,-0.100000)"
fill="#000000" stroke="none">
<path d="M174 656 c-41 -18 -64 -52 -64 -94 0 -42 34 -77 91 -92 24 -7 55 -16
69 -19 36 -11 39 -48 6 -57 -37 -9 -74 3 -81 26 -5 16 -12 19 -33 14 -75 -17
-77 -21 -29 -69 24 -24 46 -35 81 -40 97 -15 166 30 166 107 0 53 -33 83 -113
100 -51 11 -63 17 -65 35 -6 44 75 51 92 8 4 -13 14 -15 43 -9 21 4 39 8 41 9
2 2 -3 17 -12 33 -27 53 -125 77 -192 48z"/>
<path d="M430 615 l0 -45 180 0 180 0 0 45 0 45 -180 0 -180 0 0 -45z"/>
<path d="M460 305 l0 -165 125 0 125 0 0 35 0 35 -85 0 -85 0 0 130 0 130 -40
0 -40 0 0 -165z"/>
<path d="M4 216 c-3 -8 -4 -27 -2 -43 l3 -28 183 -3 183 -2 -3 42 -3 43 -178
3 c-147 2 -178 0 -183 -12z"/>
</g>
</svg>
